<svg width="18" height="19" viewBox="0 0 18 19" fill="none" xmlns="http://www.w3.org/2000/svg">
<g clip-path="url(#clip0_101_66)">
<path d="M15.7499 4.25001C12.4807 4.25001 10.4129 0.896757 10.3927 0.863757C10.3082 0.723261 10.18 0.614315 10.0278 0.553591C9.87547 0.492868 9.70749 0.483711 9.54952 0.527522C9.39154 0.571334 9.25227 0.6657 9.15302 0.796181C9.05377 0.926661 9 1.08607 8.99995 1.25001V11.0173C8.3252 10.5128 7.49984 10.251 6.65768 10.2743C5.81552 10.2977 5.00593 10.6047 4.36014 11.1458C3.71436 11.6868 3.27024 12.4302 3.09979 13.2552C2.92933 14.0803 3.04254 14.9387 3.42105 15.6914C3.79956 16.444 4.42118 17.0468 5.18515 17.402C5.94912 17.7571 6.81065 17.8438 7.63007 17.648C8.44948 17.4522 9.17876 16.9854 9.69966 16.3233C10.2206 15.6612 10.5026 14.8425 10.4999 14V3.36126C11.1747 4.08549 11.9858 4.66932 12.8867 5.07925C13.7876 5.48918 14.7607 5.71713 15.7499 5.75001C15.9489 5.75001 16.1396 5.67099 16.2803 5.53034C16.4209 5.38968 16.4999 5.19892 16.4999 5.00001C16.4999 4.80109 16.4209 4.61033 16.2803 4.46968C16.1396 4.32902 15.9489 4.25001 15.7499 4.25001Z" fill="#031F14"/>
</g>
<defs>
<clipPath id="clip0_101_66">
<rect width="18" height="18" fill="white" transform="translate(0 0.5)"/>
</clipPath>
</defs>
</svg>
