<svg width="20" height="21" viewBox="0 0 20 21" fill="none" xmlns="http://www.w3.org/2000/svg">
<path d="M13.3752 4.87502C14.2956 4.87502 15.0418 4.12883 15.0418 3.20835C15.0418 2.28788 14.2956 1.54169 13.3752 1.54169C12.4547 1.54169 11.7085 2.28788 11.7085 3.20835C11.7085 4.12883 12.4547 4.87502 13.3752 4.87502Z" fill="#031F14"/>
<path d="M17.4167 5.50004C17 5.29171 16.5 5.43754 16.2917 5.85421L15.5625 7.22921L12.3542 5.20837C12.2292 5.12504 12.0833 5.08337 11.9167 5.08337H8.375C8.0625 5.08337 7.79167 5.25004 7.64583 5.52087L6.29167 8.02087C6.0625 8.41671 6.22917 8.93754 6.625 9.14587C6.75 9.20837 6.89583 9.25004 7.02083 9.25004C7.3125 9.25004 7.60417 9.08337 7.75 8.81254L8.875 6.75004H10.1042L6.41667 13.625H2.95833C2.5 13.625 2.125 14 2.125 14.4584C2.125 14.9167 2.5 15.2917 2.95833 15.2917H6.91667C7.22917 15.2917 7.5 15.125 7.64583 14.8542L9.10417 12.1667L11.5 14.3959L11.3125 18.5834C11.2708 19.0417 11.625 19.4375 12.0833 19.4584C12.1042 19.4584 12.1042 19.4584 12.125 19.4584C12.5625 19.4584 12.9375 19.1042 12.9583 18.6667L13.1667 14.0834C13.1875 13.8334 13.0833 13.6042 12.8958 13.4375L10.875 11.5625L13 7.60421L15.4167 9.12504C15.6042 9.25004 15.8542 9.29171 16.0833 9.22921C16.3125 9.16671 16.5 9.02087 16.6042 8.81254L17.75 6.62504C17.9792 6.22921 17.8333 5.72921 17.4167 5.50004Z" fill="#031F14"/>
</svg>
